<svg width="99" height="106" viewBox="0 0 99 106" fill="none" xmlns="http://www.w3.org/2000/svg">
<path d="M17.9875 52.6665H46.1685C46.1685 52.6665 43.8202 88.0188 32.0781 88.0188C26.342 88.0188 22.8476 79.5825 20.7736 70.9521C18.6019 61.9157 17.9875 52.6665 17.9875 52.6665Z" stroke="#78350F" stroke-width="1.5" stroke-linecap="round" stroke-linejoin="round"/>
<path d="M46.1686 52.6664C46.1686 52.6664 48.6251 50.046 50.6667 49.9997C54.6667 49.9092 55.4062 52.6664 55.4062 52.6664C56.1891 54.2918 56.8152 58.5179 53.0579 62.4188C49.3003 66.3198 45.0942 69.7331 43.3824 70.952" stroke="#78350F" stroke-width="1.5" stroke-linecap="round" stroke-linejoin="round"/>
<path d="M17.9874 52.6669C17.9874 52.6669 15.4279 50.0166 13.3332 50.0003C9.33321 49.969 8.59371 52.6669 8.59371 52.6669C7.81089 54.2923 7.18465 58.5183 10.9421 62.4193C14.6996 66.3203 19.062 69.7336 20.7734 70.9528" stroke="#78350F" stroke-width="1.5" stroke-linecap="round" stroke-linejoin="round"/>
<path d="M22.6843 95.3334C22.6843 90.4572 32.0779 88.019 32.0779 88.019C32.0779 88.019 41.4717 90.4572 41.4717 95.3334H22.6843Z" stroke="#78350F" stroke-width="1.5" stroke-linecap="round" stroke-linejoin="round"/>
<path opacity="0.5" d="M31.0711 59.4973C24.7714 53.1977 29.2331 42.4263 38.1421 42.4263H74.7107C83.6197 42.4263 88.0814 53.1977 81.7817 59.4973L63.4975 77.7816C59.5922 81.6868 53.2606 81.6869 49.3553 77.7816L31.0711 59.4973Z" fill="#0369A1"/>
</svg>
