<svg width="64" height="80" viewBox="0 0 64 80" fill="none" xmlns="http://www.w3.org/2000/svg">
<path opacity="0.5" d="M46.9289 17.0711C53.2286 10.7714 64 15.2331 64 24.1421L64 43C64 48.5228 59.5228 53 54 53L35.1421 53C26.2331 53 21.7714 42.2286 28.0711 35.9289L46.9289 17.0711Z" fill="#15803D"/>
<path d="M53.3333 69.3332L10.6666 55.9998M53.3333 69.3332H10.6666V55.9998L53.3333 69.3332ZM53.3333 69.3332V47.9998C53.3333 36.2178 43.7821 26.6665 32 26.6665C29.8818 26.6665 27.836 26.9752 25.9047 27.5499C17.0926 30.1726 10.6666 38.3358 10.6666 47.9998V55.9998L53.3333 69.3332Z" stroke="#78350F" stroke-width="1.5" stroke-linecap="round" stroke-linejoin="round"/>
<path d="M42.6666 40V42.6667" stroke="#78350F" stroke-width="1.5" stroke-linecap="round"/>
<path d="M32 37.3335V40.0002" stroke="#78350F" stroke-width="1.5" stroke-linecap="round"/>
<path d="M21.3334 34.6665V37.3332" stroke="#78350F" stroke-width="1.5" stroke-linecap="round"/>
</svg>
